%TF.GenerationSoftware,KiCad,Pcbnew,9.0.0*%
%TF.CreationDate,2025-03-06T02:34:32-05:00*%
%TF.ProjectId,22257_DevBoard,32323235-375f-4446-9576-426f6172642e,rev?*%
%TF.SameCoordinates,Original*%
%TF.FileFunction,Soldermask,Bot*%
%TF.FilePolarity,Negative*%
%FSLAX46Y46*%
G04 Gerber Fmt 4.6, Leading zero omitted, Abs format (unit mm)*
G04 Created by KiCad (PCBNEW 9.0.0) date 2025-03-06 02:34:32*
%MOMM*%
%LPD*%
G01*
G04 APERTURE LIST*
G04 Aperture macros list*
%AMRoundRect*
0 Rectangle with rounded corners*
0 $1 Rounding radius*
0 $2 $3 $4 $5 $6 $7 $8 $9 X,Y pos of 4 corners*
0 Add a 4 corners polygon primitive as box body*
4,1,4,$2,$3,$4,$5,$6,$7,$8,$9,$2,$3,0*
0 Add four circle primitives for the rounded corners*
1,1,$1+$1,$2,$3*
1,1,$1+$1,$4,$5*
1,1,$1+$1,$6,$7*
1,1,$1+$1,$8,$9*
0 Add four rect primitives between the rounded corners*
20,1,$1+$1,$2,$3,$4,$5,0*
20,1,$1+$1,$4,$5,$6,$7,0*
20,1,$1+$1,$6,$7,$8,$9,0*
20,1,$1+$1,$8,$9,$2,$3,0*%
G04 Aperture macros list end*
%ADD10RoundRect,0.650000X-0.650000X0.650000X-0.650000X-0.650000X0.650000X-0.650000X0.650000X0.650000X0*%
%ADD11C,2.600000*%
%ADD12C,6.400000*%
%ADD13R,2.500000X2.500000*%
%ADD14C,1.270000*%
%ADD15RoundRect,0.200100X-0.949900X0.949900X-0.949900X-0.949900X0.949900X-0.949900X0.949900X0.949900X0*%
%ADD16C,2.500000*%
%ADD17RoundRect,0.650000X0.650000X0.650000X-0.650000X0.650000X-0.650000X-0.650000X0.650000X-0.650000X0*%
%ADD18RoundRect,0.250001X0.799999X1.549999X-0.799999X1.549999X-0.799999X-1.549999X0.799999X-1.549999X0*%
%ADD19O,2.100000X3.600000*%
%ADD20RoundRect,0.650000X-0.650000X-0.650000X0.650000X-0.650000X0.650000X0.650000X-0.650000X0.650000X0*%
%ADD21C,0.800000*%
%ADD22C,1.200000*%
%ADD23RoundRect,0.650000X0.650000X-0.650000X0.650000X0.650000X-0.650000X0.650000X-0.650000X-0.650000X0*%
G04 APERTURE END LIST*
D10*
%TO.C,TP4*%
X193040000Y-50800000D03*
D11*
X193040000Y-55880000D03*
%TD*%
D10*
%TO.C,TP9*%
X141732000Y-12700000D03*
D11*
X141732000Y-17780000D03*
%TD*%
D12*
%TO.C,H8*%
X106780700Y-68580000D03*
%TD*%
D13*
%TO.C,TP16*%
X166468600Y-1245000D03*
%TD*%
%TO.C,TP19*%
X171199800Y-1241600D03*
%TD*%
D12*
%TO.C,H10*%
X12800700Y-19050000D03*
%TD*%
%TO.C,H1*%
X100000Y0D03*
%TD*%
%TO.C,H9*%
X106780700Y-19050000D03*
%TD*%
D14*
%TO.C,J2*%
X38536828Y-5575201D03*
X38536828Y-3035201D03*
X41076828Y-5575201D03*
X41076828Y-3035201D03*
X43616828Y-5575201D03*
X43616828Y-3035201D03*
X46156828Y-5575201D03*
X46156828Y-3035201D03*
X48696828Y-5575201D03*
X48696828Y-3035201D03*
X51236828Y-5575201D03*
X51236828Y-3035201D03*
X53776828Y-5575201D03*
X53776828Y-3035201D03*
X56316828Y-5575201D03*
X56316828Y-3035201D03*
X58856828Y-5575201D03*
X58856828Y-3035201D03*
X61396828Y-5575201D03*
X61396828Y-3035201D03*
X63936828Y-5575201D03*
X63936828Y-3035201D03*
X66476828Y-5575201D03*
X66476828Y-3035201D03*
X69016828Y-5575201D03*
X69016828Y-3035201D03*
X71556828Y-5575201D03*
X71556828Y-3035201D03*
X74096828Y-5575201D03*
X74096828Y-3035201D03*
X76636828Y-5575201D03*
X76636828Y-3035201D03*
X79176828Y-5575201D03*
X79176828Y-3035201D03*
X81716828Y-5575201D03*
X81716828Y-3035201D03*
X84256828Y-5575201D03*
X84256828Y-3035201D03*
X86796828Y-5575201D03*
X86796828Y-3035201D03*
%TD*%
D10*
%TO.C,TP5*%
X193040000Y-66040000D03*
D11*
X193040000Y-71120000D03*
%TD*%
D13*
%TO.C,TP18*%
X126390800Y-8785978D03*
%TD*%
%TO.C,TP14*%
X99574913Y-4822528D03*
%TD*%
%TO.C,TP11*%
X155699000Y-33017000D03*
%TD*%
%TO.C,TP15*%
X130553000Y-8810800D03*
%TD*%
%TO.C,TP20*%
X167059600Y-42062800D03*
%TD*%
D12*
%TO.C,H2*%
X0Y-88750000D03*
%TD*%
D15*
%TO.C,J5*%
X203515600Y-40690800D03*
D16*
X206055600Y-38150800D03*
X200975600Y-38150800D03*
X206055600Y-43230800D03*
X200975600Y-43230800D03*
%TD*%
D14*
%TO.C,J1*%
X86792588Y-79232316D03*
X86792588Y-81772316D03*
X84252588Y-79232316D03*
X84252588Y-81772316D03*
X81712588Y-79232316D03*
X81712588Y-81772316D03*
X79172588Y-79232316D03*
X79172588Y-81772316D03*
X76632588Y-79232316D03*
X76632588Y-81772316D03*
X74092588Y-79232316D03*
X74092588Y-81772316D03*
X71552588Y-79232316D03*
X71552588Y-81772316D03*
X69012588Y-79232316D03*
X69012588Y-81772316D03*
X66472588Y-79232316D03*
X66472588Y-81772316D03*
X63932588Y-79232316D03*
X63932588Y-81772316D03*
X61392588Y-79232316D03*
X61392588Y-81772316D03*
X58852588Y-79232316D03*
X58852588Y-81772316D03*
X56312588Y-79232316D03*
X56312588Y-81772316D03*
X53772588Y-79232316D03*
X53772588Y-81772316D03*
X51232588Y-79232316D03*
X51232588Y-81772316D03*
X48692588Y-79232316D03*
X48692588Y-81772316D03*
X46152588Y-79232316D03*
X46152588Y-81772316D03*
X43612588Y-79232316D03*
X43612588Y-81772316D03*
X41072588Y-79232316D03*
X41072588Y-81772316D03*
X38532588Y-79232316D03*
X38532588Y-81772316D03*
%TD*%
D16*
%TO.C,U1*%
X135969000Y-57658000D03*
X135969000Y-72898000D03*
X135969000Y-77978000D03*
X135969000Y-83058000D03*
X168969000Y-83058000D03*
X168969000Y-77978000D03*
X168969000Y-72898000D03*
X168969000Y-67818000D03*
X168969000Y-57658000D03*
%TD*%
D15*
%TO.C,J6*%
X203515600Y-55930800D03*
D16*
X206055600Y-53390800D03*
X200975600Y-53390800D03*
X206055600Y-58470800D03*
X200975600Y-58470800D03*
%TD*%
D17*
%TO.C,TP10*%
X156464000Y-19812000D03*
D11*
X151384000Y-19812000D03*
%TD*%
D13*
%TO.C,TP1*%
X104648000Y-4826000D03*
%TD*%
D15*
%TO.C,J4*%
X203515600Y-25450800D03*
D16*
X206055600Y-22910800D03*
X200975600Y-22910800D03*
X206055600Y-27990800D03*
X200975600Y-27990800D03*
%TD*%
D15*
%TO.C,J7*%
X203515600Y-71170800D03*
D16*
X206055600Y-68630800D03*
X200975600Y-68630800D03*
X206055600Y-73710800D03*
X200975600Y-73710800D03*
%TD*%
D13*
%TO.C,TP3*%
X114808000Y-4826000D03*
%TD*%
D18*
%TO.C,J3*%
X189992000Y-7587500D03*
D19*
X182372000Y-7587500D03*
%TD*%
D20*
%TO.C,TP8*%
X184404000Y-13970000D03*
D11*
X189484000Y-13970000D03*
%TD*%
D21*
%TO.C,JX1*%
X40573448Y-66038141D03*
D22*
X84773448Y-66038141D03*
%TD*%
D12*
%TO.C,H11*%
X12800700Y-68580000D03*
%TD*%
D23*
%TO.C,TP7*%
X193040000Y-40640000D03*
D11*
X193040000Y-35560000D03*
%TD*%
D21*
%TO.C,JX2*%
X40573448Y-21588141D03*
D22*
X84773448Y-21588141D03*
%TD*%
D13*
%TO.C,TP12*%
X117449600Y-83210400D03*
%TD*%
%TO.C,TP2*%
X109728000Y-4826000D03*
%TD*%
D12*
%TO.C,H3*%
X203200000Y0D03*
%TD*%
D13*
%TO.C,TP17*%
X167056200Y-36598400D03*
%TD*%
D23*
%TO.C,TP6*%
X193040000Y-25400000D03*
D11*
X193040000Y-20320000D03*
%TD*%
D12*
%TO.C,H4*%
X203200000Y-88900000D03*
%TD*%
D13*
%TO.C,TP13*%
X29207000Y-5541000D03*
%TD*%
M02*
