M48
; DRILL file {KiCad 9.0.0} date 2025-03-06T02:44:45-0500
; FORMAT={-:-/ absolute / metric / decimal}
; #@! TF.CreationDate,2025-03-06T02:44:45-05:00
; #@! TF.GenerationSoftware,Kicad,Pcbnew,9.0.0
; #@! TF.FileFunction,Plated,1,6,PTH
FMAT,2
METRIC
; #@! TA.AperFunction,Plated,PTH,ViaDrill
T1C0.381
; #@! TA.AperFunction,Plated,PTH,ComponentDrill
T2C0.711
; #@! TA.AperFunction,Plated,PTH,ComponentDrill
T3C1.200
; #@! TA.AperFunction,Plated,PTH,ComponentDrill
T4C1.300
; #@! TA.AperFunction,Plated,PTH,ComponentDrill
T5C1.400
; #@! TA.AperFunction,Plated,PTH,ComponentDrill
T6C1.500
; #@! TA.AperFunction,Plated,PTH,ComponentDrill
T7C1.700
; #@! TA.AperFunction,Plated,PTH,ComponentDrill
T8C1.960
; #@! TA.AperFunction,Plated,PTH,ComponentDrill
T9C3.200
%
G90
G05
T1
X-2.184Y-5.664
X-2.184Y-18.364
X-2.184Y-31.064
X-2.184Y-43.764
X-2.184Y-56.464
X-2.184Y-69.164
X-2.184Y-81.864
X5.613Y3.962
X6.477Y-92.558
X18.313Y3.962
X19.177Y-92.558
X29.337Y-42.85
X31.013Y3.962
X31.877Y-92.558
X35.509Y-41.707
X35.56Y-44.145
X36.728Y-42.926
X39.751Y-4.318
X42.926Y-7.366
X43.307Y-16.129
X43.561Y-21.59
X43.637Y-70.917
X43.713Y3.962
X44.196Y-4.242
X44.353Y-13.97
X44.577Y-92.558
X44.806Y-27.737
X46.05Y-70.231
X46.157Y-15.747
X46.228Y-21.59
X46.228Y-25.883
X47.079Y-26.67
X47.877Y-25.825
X48.26Y-70.231
X48.415Y-66.354
X48.616Y-17.399
X48.668Y-61.47
X48.743Y-21.59
X48.92Y-11.151
X49.026Y-65.661
X49.098Y-12.802
X49.149Y-4.191
X49.479Y-26.873
X49.53Y-61.087
X50.297Y-25.812
X50.303Y-61.83
X51.079Y-70.079
X51.13Y-21.539
X51.181Y-17.729
X51.359Y-66.167
X51.867Y-25.578
X51.873Y-14.935
X51.892Y-61.163
X51.918Y-77.495
X52.711Y-61.919
X52.73Y-26.416
X53.492Y-17.374
X53.492Y-70.053
X53.543Y-66.142
X53.645Y-14.808
X54.254Y-25.679
X54.254Y-61.722
X54.273Y-17.863
X54.305Y-21.488
X55.118Y-60.833
X55.753Y-17.805
X55.873Y-21.507
X55.88Y-61.849
X55.88Y-66.142
X56.286Y-15.443
X56.413Y3.962
X56.642Y-61.132
X56.896Y-4.318
X57.277Y-92.558
X58.217Y-61.798
X58.273Y-17.719
X58.273Y-21.813
X58.318Y-66.116
X58.395Y-70.079
X58.826Y-14.783
X60.173Y-61.824
X60.673Y-66.421
X60.676Y-17.653
X60.706Y-6.858
X60.757Y-70.129
X60.833Y-21.59
X61.34Y-62.227
X62.916Y-61.9
X63.073Y-17.791
X63.073Y-21.082
X63.094Y-70.155
X63.119Y-66.167
X63.271Y-43.586
X63.957Y-54.458
X64.262Y-4.318
X65.782Y-7.087
X65.786Y-10.541
X65.853Y-66.04
X65.913Y-17.78
X65.913Y-21.59
X65.913Y-26.035
X65.913Y-62.103
X65.913Y-70.528
X66.675Y-73.787
X67.056Y-17.018
X67.081Y-25.73
X67.107Y-51.308
X67.945Y-25.705
X68.555Y-69.875
X68.656Y-17.297
X68.783Y-66.065
X69.113Y3.962
X69.139Y-44.094
X69.444Y-61.341
X69.469Y-15.748
X69.494Y-25.73
X69.977Y-92.558
X70.282Y-62.052
X70.3Y-26.416
X71.069Y-16.358
X71.12Y-69.901
X71.171Y-66.523
X71.577Y-75.209
X71.73Y-12.598
X71.857Y-26.67
X71.873Y-15.545
X71.882Y-61.976
X72.009Y-4.318
X72.466Y-43.739
X72.681Y-25.831
X72.681Y-61.341
X73.406Y-74.168
X73.482Y-16.789
X73.482Y-26.67
X73.482Y-62.052
X73.5Y-66.0
X74.0Y-70.0
X74.143Y-13.589
X74.27Y-61.595
X74.273Y-21.768
X74.295Y-17.551
X74.5Y-66.0
X75.082Y-25.629
X75.082Y-61.951
X75.882Y-61.468
X75.9Y-26.67
X76.429Y-72.644
X76.606Y-60.427
X76.683Y-66.04
X76.708Y-69.952
X76.733Y-43.434
X76.759Y-21.539
X77.216Y-4.318
X77.445Y-61.341
X78.288Y-61.971
X78.842Y-21.336
X78.994Y-12.7
X78.994Y-13.868
X79.096Y-66.167
X79.273Y-17.221
X79.451Y-69.774
X79.616Y-70.955
X80.289Y-61.316
X80.67Y-22.022
X81.458Y-65.557
X81.813Y3.962
X82.626Y-44.636
X82.677Y-92.558
X84.328Y-76.962
X84.328Y-83.693
X86.5Y-24.0
X86.995Y-42.799
X87.0Y-22.5
X87.5Y-25.5
X89.662Y-49.149
X89.941Y-22.479
X90.018Y-25.248
X91.364Y-23.901
X91.389Y-47.549
X91.973Y-35.357
X94.513Y3.962
X95.377Y-92.558
X95.5Y-64.5
X96.774Y-33.045
X97.0Y-63.0
X97.0Y-66.0
X98.831Y-65.786
X98.857Y-20.549
X98.908Y-62.992
X99.466Y-86.233
X99.695Y-64.389
X100.381Y-29.921
X102.565Y-10.516
X107.213Y3.962
X107.493Y-10.389
X108.077Y-92.558
X112.395Y-10.566
X118.618Y-18.796
X119.431Y-33.426
X119.634Y-18.796
X119.786Y-42.977
X119.804Y-47.631
X119.888Y-38.202
X119.913Y3.962
X120.117Y-25.756
X120.65Y-18.796
X120.777Y-92.558
X121.666Y-18.796
X123.8Y-15.596
X124.308Y-30.988
X124.358Y-36.441
X124.358Y-40.691
X124.358Y-45.974
X124.689Y-24.384
X125.095Y-16.815
X125.349Y-21.133
X127.533Y-27.33
X128.118Y-36.576
X128.143Y-45.974
X128.219Y-40.792
X128.473Y-31.242
X128.854Y-19.329
X129.235Y-13.665
X129.286Y-14.986
X129.311Y-16.688
X131.597Y-52.299
X131.826Y-18.034
X132.613Y3.962
X132.893Y-19.253
X133.096Y-4.928
X133.477Y-92.558
X133.883Y-6.172
X134.899Y-40.437
X134.976Y-51.486
X135.128Y-47.414
X135.763Y-19.431
X136.398Y-42.926
X136.474Y-50.292
X136.55Y-34.696
X136.601Y-2.896
X136.881Y-5.081
X136.906Y-19.431
X137.211Y-26.543
X137.617Y-5.081
X137.922Y-19.431
X138.049Y0.533
X138.151Y-7.747
X138.811Y-19.431
X139.192Y-15.367
X139.192Y-16.383
X139.192Y-17.526
X139.192Y-18.542
X139.497Y-5.081
X139.522Y-46.99
X140.487Y-3.454
X140.97Y-45.847
X140.973Y-58.928
X140.973Y-61.468
X140.973Y-64.008
X140.973Y-66.548
X140.973Y-69.088
X140.973Y-71.628
X140.973Y-74.168
X140.973Y-76.708
X140.973Y-79.248
X140.973Y-81.788
X141.63Y-4.191
X141.732Y-9.195
X142.9Y-44.348
X143.513Y-58.928
X143.513Y-61.468
X143.513Y-64.008
X143.513Y-66.548
X143.513Y-69.088
X143.513Y-71.628
X143.513Y-74.168
X143.513Y-76.708
X143.513Y-79.248
X143.513Y-81.788
X145.136Y-43.739
X145.313Y3.962
X146.053Y-58.928
X146.053Y-61.468
X146.053Y-64.008
X146.053Y-66.548
X146.053Y-69.088
X146.053Y-71.628
X146.053Y-74.168
X146.053Y-76.708
X146.053Y-79.248
X146.053Y-81.788
X146.177Y-92.558
X146.228Y-8.306
X146.304Y-39.726
X146.558Y-45.009
X148.593Y-58.928
X148.593Y-61.468
X148.593Y-64.008
X148.593Y-66.548
X148.593Y-69.088
X148.593Y-71.628
X148.593Y-74.168
X148.593Y-76.708
X148.593Y-79.248
X148.593Y-81.788
X148.717Y-8.331
X150.622Y-40.132
X150.901Y-1.346
X150.927Y-5.309
X151.028Y-8.331
X151.133Y-58.928
X151.133Y-61.468
X151.133Y-64.008
X151.133Y-66.548
X151.133Y-69.088
X151.133Y-71.628
X151.133Y-74.168
X151.133Y-76.708
X151.133Y-79.248
X151.133Y-81.788
X151.638Y-44.907
X151.74Y-42.418
X151.994Y-37.592
X153.289Y-40.64
X153.673Y-58.928
X153.673Y-61.468
X153.673Y-64.008
X153.673Y-66.548
X153.673Y-69.088
X153.673Y-71.628
X153.673Y-74.168
X153.673Y-76.708
X153.673Y-79.248
X153.673Y-81.788
X154.305Y-7.747
X154.356Y-37.617
X154.737Y-28.651
X155.397Y-24.384
X155.575Y-7.747
X155.702Y-40.513
X156.213Y-58.928
X156.213Y-61.468
X156.213Y-64.008
X156.213Y-66.548
X156.213Y-69.088
X156.213Y-71.628
X156.213Y-74.168
X156.213Y-76.708
X156.213Y-79.248
X156.213Y-81.788
X156.718Y-7.747
X157.353Y-1.397
X157.353Y-2.667
X157.353Y-3.937
X157.353Y-5.207
X157.861Y-7.747
X158.013Y3.962
X158.753Y-58.928
X158.753Y-61.468
X158.753Y-64.008
X158.753Y-66.548
X158.753Y-69.088
X158.753Y-71.628
X158.753Y-74.168
X158.753Y-76.708
X158.753Y-79.248
X158.753Y-81.788
X158.877Y-92.558
X161.293Y-58.928
X161.293Y-61.468
X161.293Y-64.008
X161.293Y-66.548
X161.293Y-69.088
X161.293Y-71.628
X161.293Y-74.168
X161.293Y-76.708
X161.293Y-79.248
X161.293Y-81.788
X162.712Y-7.62
X162.738Y-9.576
X162.763Y-5.994
X162.865Y-27.407
X163.195Y-13.538
X163.728Y-3.785
X163.833Y-58.928
X163.833Y-61.468
X163.833Y-64.008
X163.833Y-66.548
X163.833Y-69.088
X163.833Y-71.628
X163.833Y-74.168
X163.833Y-76.708
X163.833Y-79.248
X163.833Y-81.788
X165.125Y-20.523
X165.329Y-13.462
X165.887Y-27.508
X166.573Y-5.893
X167.005Y-13.716
X167.361Y-9.271
X167.437Y-20.498
X167.691Y-7.112
X168.707Y-27.483
X169.85Y-20.498
X170.053Y-13.691
X170.612Y-37.465
X170.713Y3.962
X171.069Y-35.306
X171.577Y-92.558
X171.806Y-42.012
X171.856Y-18.491
X171.933Y-27.483
X171.958Y-82.042
X171.958Y-83.947
X171.983Y-37.44
X172.618Y-21.971
X173.355Y-35.56
X174.168Y-19.583
X174.244Y-83.185
X174.498Y-35.56
X174.498Y-39.522
X174.6Y-21.387
X175.311Y-13.259
X175.768Y-15.418
X176.276Y-83.185
X176.403Y-35.56
X176.479Y-39.573
X176.759Y-13.386
X176.962Y-22.403
X178.5Y-13.5
X178.5Y-19.5
X183.413Y3.962
X184.277Y-92.558
X196.113Y3.962
X196.977Y-92.558
X206.324Y-6.655
X206.324Y-19.355
X206.527Y-81.559
T2
X38.533Y-79.232
X38.533Y-81.772
X38.537Y-3.035
X38.537Y-5.575
X41.073Y-79.232
X41.073Y-81.772
X41.077Y-3.035
X41.077Y-5.575
X43.613Y-79.232
X43.613Y-81.772
X43.617Y-3.035
X43.617Y-5.575
X46.153Y-79.232
X46.153Y-81.772
X46.157Y-3.035
X46.157Y-5.575
X48.693Y-79.232
X48.693Y-81.772
X48.697Y-3.035
X48.697Y-5.575
X51.233Y-79.232
X51.233Y-81.772
X51.237Y-3.035
X51.237Y-5.575
X53.773Y-79.232
X53.773Y-81.772
X53.777Y-3.035
X53.777Y-5.575
X56.313Y-79.232
X56.313Y-81.772
X56.317Y-3.035
X56.317Y-5.575
X58.853Y-79.232
X58.853Y-81.772
X58.857Y-3.035
X58.857Y-5.575
X61.393Y-79.232
X61.393Y-81.772
X61.397Y-3.035
X61.397Y-5.575
X63.933Y-79.232
X63.933Y-81.772
X63.937Y-3.035
X63.937Y-5.575
X66.473Y-79.232
X66.473Y-81.772
X66.477Y-3.035
X66.477Y-5.575
X69.013Y-79.232
X69.013Y-81.772
X69.017Y-3.035
X69.017Y-5.575
X71.553Y-79.232
X71.553Y-81.772
X71.557Y-3.035
X71.557Y-5.575
X74.093Y-79.232
X74.093Y-81.772
X74.097Y-3.035
X74.097Y-5.575
X76.633Y-79.232
X76.633Y-81.772
X76.637Y-3.035
X76.637Y-5.575
X79.173Y-79.232
X79.173Y-81.772
X79.177Y-3.035
X79.177Y-5.575
X81.713Y-79.232
X81.713Y-81.772
X81.717Y-3.035
X81.717Y-5.575
X84.253Y-79.232
X84.253Y-81.772
X84.257Y-3.035
X84.257Y-5.575
X86.793Y-79.232
X86.793Y-81.772
X86.797Y-3.035
X86.797Y-5.575
T3
X29.207Y-5.541
X99.575Y-4.823
X104.648Y-4.826
X109.728Y-4.826
X114.808Y-4.826
X117.45Y-83.21
X126.391Y-8.786
X130.553Y-8.811
X155.699Y-33.017
X166.469Y-1.245
X167.056Y-36.598
X167.06Y-42.063
X171.2Y-1.242
T4
X141.732Y-12.7
X141.732Y-17.78
X151.384Y-19.812
X156.464Y-19.812
X184.404Y-13.97
X189.484Y-13.97
X193.04Y-20.32
X193.04Y-25.4
X193.04Y-35.56
X193.04Y-40.64
X193.04Y-50.8
X193.04Y-55.88
X193.04Y-66.04
X193.04Y-71.12
T5
X182.372Y-7.587
X189.992Y-7.587
T6
X203.516Y-25.451
X203.516Y-40.691
X203.516Y-55.931
X203.516Y-71.171
T7
X200.976Y-22.911
X200.976Y-27.991
X200.976Y-38.151
X200.976Y-43.231
X200.976Y-53.391
X200.976Y-58.471
X200.976Y-68.631
X200.976Y-73.711
X206.056Y-22.911
X206.056Y-27.991
X206.056Y-38.151
X206.056Y-43.231
X206.056Y-53.391
X206.056Y-58.471
X206.056Y-68.631
X206.056Y-73.711
T8
X135.969Y-57.658
X135.969Y-72.898
X135.969Y-77.978
X135.969Y-83.058
X168.969Y-57.658
X168.969Y-67.818
X168.969Y-72.898
X168.969Y-77.978
X168.969Y-83.058
T9
X0.0Y-88.75
X0.1Y0.0
X12.801Y-19.05
X12.801Y-68.58
X106.781Y-19.05
X106.781Y-68.58
X203.2Y0.0
X203.2Y-88.9
M30
